<?xml version="1.0" encoding="utf-8"?>
<!-- Generator: Adobe Illustrator 21.0.0, SVG Export Plug-In . SVG Version: 6.00 Build 0)  -->
<svg version="1.1" id="Capa_1" xmlns="http://www.w3.org/2000/svg" xmlns:xlink="http://www.w3.org/1999/xlink" x="0px" y="0px"
	 viewBox="0 0 200 200" style="enable-background:new 0 0 200 200;" xml:space="preserve">
<style type="text/css">
	.st0{fill:#627C84;}
	.st1{fill:#FFFFFF;}
	.st2{font-family:'MyriadPro-Regular';}
	.st3{font-size:22.3348px;}
</style>
<rect class="st0" width="200" height="200"/>
<g>
	<g>
		<path class="st1" d="M180.5,38.5c-4.6-4.5-10-6.8-16.5-6.8h-20.4L139,19.3c-1.2-3-3.3-5.5-6.3-7.7c-3.1-2.2-6.2-3.2-9.4-3.2H76.7
			c-3.2,0-6.4,1.1-9.4,3.2c-3.1,2.2-5.2,4.7-6.3,7.7l-4.6,12.4H35.9c-6.4,0-11.9,2.3-16.5,6.8c-4.5,4.5-6.8,10-6.8,16.5v81.5
			c0,6.4,2.3,11.9,6.8,16.5c4.6,4.6,10,6.8,16.5,6.8h128.1c6.4,0,11.9-2.3,16.5-6.8c4.5-4.5,6.8-10,6.8-16.5V55
			C187.4,48.5,185.1,43,180.5,38.5z M128.8,124.5c-8,8-17.6,12-28.8,12s-20.8-4-28.8-12c-8-8-12-17.6-12-28.8c0-11.2,4-20.8,12-28.8
			c8-8,17.6-12,28.8-12s20.8,4,28.8,12c8,8,12,17.6,12,28.8C140.8,107,136.8,116.6,128.8,124.5z"/>
		<path class="st1" d="M100,69.5c-7.2,0-13.4,2.6-18.5,7.7c-5.1,5.1-7.7,11.3-7.7,18.5c0,7.2,2.6,13.4,7.7,18.5
			c5.1,5.1,11.3,7.7,18.5,7.7c7.2,0,13.4-2.6,18.5-7.7c5.1-5.1,7.7-11.3,7.7-18.5c0-7.2-2.6-13.4-7.7-18.5
			C113.4,72.1,107.2,69.5,100,69.5z"/>
	</g>
</g>
<text transform="matrix(1 0 0 1 24 186.9229)" class="st1 st2 st3">Agregar imagen</text>
</svg>
